# xmcd
#
# Track frame offsets:
#        150
#        23854
#        43114
#        66836
#
# Disc length: 1147 seconds
#
# Revision: 2
# Processed by: cddbd v1.5.1PL2 Copyright (c) Steve Scherf et al.
# Submitted via: ExactAudioCopy v0.95b3
#
DISCID=30047904
DTITLE=sowelu - to YOU
DYEAR=2006
DGENRE=JPop
TTITLE0=to YOU
TTITLE1=Finally
TTITLE2=to YOU (Instrumental)
TTITLE3=Finally (Instrumental)
EXTD=YEAR: 2006
EXTT0=
EXTT1=
EXTT2=
EXTT3=
PLAYORDER=
